<svg width="130" height="34" viewBox="0 0 130 34" fill="none" xmlns="http://www.w3.org/2000/svg">
<path fill-rule="evenodd" clip-rule="evenodd" d="M17.1575 1.25343e-07C21.707 1.25343e-07 26.0702 1.79111 29.287 4.97924C32.5039 8.16737 34.3108 12.4913 34.3102 16.9998C34.3102 23.8757 30.1304 30.0746 23.7198 32.7057C17.3092 35.3368 9.93041 33.882 5.02431 29.0197C0.118217 24.1573 -1.34897 16.8451 1.30693 10.4928C3.96284 4.1405 10.2188 -0.000831886 17.1575 1.25343e-07ZM9.73537 6.86944C9.00889 6.70569 8.25234 6.72764 7.53677 6.93322C7.56065 6.9579 7.57674 6.97436 7.58686 6.98465L7.60113 6.99905L7.80874 7.02991C9.04999 7.141 10.2379 7.58243 11.2468 8.30751C11.6534 8.58488 12.0298 8.90343 12.3699 9.258C12.6834 9.60364 13.0239 10.0295 13.1277 10.4389C13.2315 10.8483 13.4641 11.1816 13.5741 11.5643C13.9353 12.8234 14.0848 14.6503 13.2544 15.7654C12.9658 16.1562 12.4696 16.5492 12.8537 17.1664C12.8703 17.1973 12.808 17.2651 12.808 17.3186C12.7764 17.5041 12.7673 17.6927 12.781 17.8803C12.8682 18.4296 12.9741 18.9768 13.0758 19.5262C13.0841 19.5632 13.1049 19.5982 13.1049 19.6352C13.6945 21.2811 14.3796 22.8488 15.8516 23.9556C16.4744 24.4247 16.4972 24.832 16.082 25.4719C15.6523 26.1528 15.1893 26.8215 14.7741 27.5127H15.3388L15.3845 27.4284C15.6917 26.9182 16.0156 26.4285 16.3374 25.9121C16.6592 25.3957 16.9644 24.8732 17.3007 24.3671C17.3943 24.2311 17.5332 24.132 17.6931 24.0873L17.7782 24.0708C17.8766 24.052 17.9777 24.0868 18.0432 24.1619C18.1088 24.2371 18.1288 24.3412 18.0959 24.435C18.0004 24.7086 17.9194 24.9966 17.8467 25.2908C17.6827 25.9492 17.5561 26.6301 17.3962 27.237C17.6121 27.1938 17.7139 27.2062 17.9381 27.1609C18.0253 26.6425 18.2246 25.9142 18.3782 25.3402C18.4509 25.0624 18.592 24.3321 18.81 24.0934C19.028 23.8548 19.709 23.6573 20.2488 23.3981C20.3573 23.3422 20.4734 23.302 20.5934 23.2787C20.705 23.2681 20.8175 23.2729 20.9277 23.2931C21.1752 23.3308 21.4196 23.3872 21.6585 23.4618C22.379 23.7645 22.9834 24.287 23.3837 24.9534C23.8072 25.6426 24.565 26.1775 25.1878 26.7001C25.4903 26.9554 25.8975 27.0525 26.284 26.9614H26.2965C26.666 27.2062 27.374 27.4078 27.7041 27.2864C28.0342 27.165 28.5221 26.9202 28.5221 26.5273C28.5915 26.4954 28.6564 26.4546 28.7151 26.4059C28.863 26.2704 28.8793 26.0445 28.7525 25.8895C28.3269 25.1879 27.3615 24.8732 26.7138 24.4103C25.8031 23.7629 24.9034 23.0963 24.0148 22.4105C23.8532 22.2984 23.7085 22.164 23.5851 22.0114C23.2986 21.6267 23.2944 21.0506 23.1387 20.598C22.963 20.0801 22.7112 19.5906 22.3913 19.1456C22.1449 18.8152 21.9169 18.4718 21.7083 18.1169C21.1228 17.1108 20.5415 16.1048 19.6176 15.3601C19.1131 14.9527 19.1547 14.4445 19.1692 13.8644C19.1892 13.1506 19.0103 12.4452 18.6523 11.8256C17.8654 10.4657 16.4017 9.88549 14.8862 9.76822C14.6222 9.75468 14.3658 9.67543 14.1409 9.5378C13.8276 9.30085 13.5345 9.03868 13.2648 8.75396C12.2987 7.79845 11.072 7.14345 9.73537 6.86944ZM73.4767 0.479371C73.8423 0.467922 74.2048 0.550992 74.5301 0.720799C74.7796 0.868406 74.9846 1.08258 75.1229 1.34012C75.2714 1.6311 75.3639 1.94816 75.3956 2.27434C75.4393 2.66667 75.4573 3.06153 75.4493 3.45629C75.4338 4.06679 75.3164 4.67018 75.1023 5.24077C74.8648 5.88237 74.5732 6.5019 74.2306 7.09242C73.867 7.71812 73.4677 8.32167 73.0347 8.89999C72.5989 9.49411 72.1548 10.0567 71.7169 10.5795L71.6198 10.695L71.9916 10.9637L72.0722 10.8629C72.3599 10.4988 72.6733 10.1563 73.0099 9.83841C73.2135 9.62897 73.4869 9.50464 73.7762 9.48991C74.0912 9.48847 74.401 9.571 74.6747 9.72924C74.9377 9.88984 75.1649 10.1043 75.3419 10.3591C75.5292 10.63 75.669 10.9319 75.755 11.2513C75.8502 11.5926 75.8954 11.9463 75.8893 12.301C75.8851 12.6117 75.8686 12.9119 75.8397 13.1932C75.8116 13.4667 75.7633 13.7375 75.6951 14.0036C75.6265 14.2725 75.536 14.5351 75.4245 14.7887C75.2965 15.0696 75.1459 15.3392 74.9742 15.5949L74.652 16.0799L75.1539 15.7923C75.3811 15.6642 75.598 15.5466 75.8294 15.4228C76.0607 15.2989 76.292 15.1645 76.5316 15.0155C76.7712 14.8664 77.0108 14.6985 77.2463 14.5179C77.4621 14.3531 77.669 14.1765 77.866 13.9889L77.8969 13.9595L77.9362 13.7873C77.9527 13.7223 77.9692 13.6509 77.9878 13.5774C78.1241 13.0211 78.2605 12.4773 78.4237 11.9168C78.5868 11.3563 78.7232 10.8398 78.8368 10.3863C78.8751 10.2513 78.9529 10.1312 79.0598 10.042C79.1831 9.93572 79.3226 9.85062 79.4729 9.79012C79.627 9.72479 79.7877 9.67691 79.9521 9.64737C80.1006 9.61935 80.2514 9.60529 80.4024 9.60538C80.6895 9.60958 80.7928 9.67676 80.8279 9.71665C80.8972 9.79764 80.9314 9.90359 80.9229 10.0106C80.9099 10.2003 80.8774 10.3882 80.8259 10.5711C80.7598 10.8314 80.6895 11.1211 80.5842 11.4423C80.4788 11.7635 80.3797 12.112 80.2723 12.492C80.1649 12.872 80.0595 13.2436 79.9583 13.6257C79.8571 14.0078 79.7745 14.3815 79.7063 14.7363C79.6431 15.0637 79.6065 15.3958 79.5969 15.7293C79.5847 15.9729 79.6155 16.2168 79.6878 16.4494C79.7577 16.6668 79.9629 16.809 80.1876 16.7958C80.4726 16.7881 80.7509 16.7057 80.9952 16.5564C81.2911 16.39 81.5741 16.2013 81.8421 15.9917C82.1209 15.7734 82.3998 15.5445 82.6683 15.3115L82.8501 15.154V15.0995C82.8769 14.8874 82.9058 14.6691 82.9368 14.4424C82.9967 14.0498 83.0649 13.6341 83.1434 13.21C83.2219 12.7859 83.3024 12.4018 83.3871 12.0155C83.4718 11.6292 83.5585 11.2786 83.6412 10.9658C83.7089 10.7049 83.7917 10.4484 83.889 10.1974C83.9275 10.0925 83.9752 9.99132 84.0316 9.89509C84.0664 9.83704 84.112 9.78641 84.1658 9.74604C84.2213 9.70986 84.2842 9.6869 84.3496 9.67886C84.4599 9.66448 84.5711 9.65957 84.6822 9.66416C84.7991 9.66298 84.9159 9.67212 85.0313 9.69145C85.0749 9.69441 85.1153 9.71571 85.1428 9.75024C85.1759 9.80747 85.1931 9.87279 85.1924 9.93918V10.3863L85.18 11.2261V12.3346H85.496L85.5353 12.259C85.6619 12.0057 85.8045 11.7258 85.9628 11.4192C86.1152 11.1231 86.2943 10.842 86.4978 10.5795C86.6888 10.3361 86.9151 10.1237 87.1691 9.94968C87.413 9.78411 87.7022 9.70108 87.9953 9.71245C88.0957 9.71235 88.1952 9.73158 88.2886 9.76913C88.3786 9.80323 88.4613 9.85454 88.5323 9.92029C88.6019 9.9845 88.6568 10.0633 88.6934 10.1512C88.734 10.2509 88.753 10.3583 88.7492 10.4661C88.7419 10.607 88.7253 10.7473 88.6996 10.886V10.9091C88.6666 11.0917 88.6315 11.2723 88.5922 11.4822C88.553 11.6922 88.5137 11.8958 88.4807 12.091C88.4492 12.2608 88.4305 12.4327 88.4249 12.6054C88.4174 12.8075 88.4382 13.0097 88.4869 13.2058C88.5224 13.3564 88.5855 13.4988 88.6728 13.6257C88.7488 13.7283 88.849 13.8098 88.964 13.8629C89.0688 13.9099 89.1821 13.9342 89.2966 13.9343C89.6097 13.935 89.92 13.8729 90.2095 13.7517C90.2488 13.737 90.286 13.7181 90.3231 13.7013L90.4347 13.6509L90.4574 13.6005C90.5256 13.4367 90.5875 13.3045 90.6516 13.1806C90.8499 12.8063 91.0867 12.4545 91.358 12.1309C91.912 11.4684 92.6178 10.9544 93.4132 10.6341C93.5776 10.5681 93.7459 10.5127 93.9172 10.4682C94.4316 10.3448 94.8144 9.90623 94.8735 9.37235C94.9169 8.8643 94.983 8.35625 95.0697 7.8566C95.1978 7.11167 95.3709 6.37549 95.5882 5.65225C95.7876 4.99219 96.0347 4.34802 96.3276 3.72501C96.5744 3.19332 96.8756 2.68949 97.2261 2.22186C97.5135 1.83933 97.8627 1.50922 98.2589 1.24565C98.5764 1.03068 98.9494 0.916 99.3309 0.916042C99.5658 0.911942 99.7956 0.985631 99.9857 1.12598C100.174 1.27756 100.326 1.47161 100.428 1.69281C100.552 1.9582 100.635 2.24146 100.673 2.53257C100.724 2.86801 100.746 3.20726 100.74 3.54657C100.735 3.7565 100.723 3.97904 100.702 4.20787C100.615 5.03935 100.455 5.86132 100.225 6.66415C100.004 7.43316 99.7432 8.18996 99.4445 8.93148C99.145 9.66626 98.829 10.3926 98.4716 11.119C98.1143 11.8454 97.7714 12.6096 97.4389 13.3927C97.3986 13.5003 97.3648 13.6104 97.3377 13.7223C97.3046 13.8524 97.2716 13.9868 97.2406 14.1421C97.2096 14.2975 97.1827 14.4507 97.1621 14.5998C97.1416 14.7529 97.1299 14.9072 97.127 15.0617C97.1245 15.2398 97.1328 15.4179 97.1518 15.5949C97.1688 15.7555 97.2049 15.9134 97.2592 16.0652C97.3062 16.2024 97.3848 16.3262 97.4884 16.4263C97.5969 16.5264 97.7385 16.5811 97.885 16.5795C98.0303 16.5804 98.1748 16.557 98.3126 16.5102C98.4709 16.4583 98.6249 16.3937 98.7732 16.3171C98.926 16.2394 99.0954 16.1429 99.2545 16.0421C99.4135 15.9413 99.5705 15.8363 99.7213 15.7314C99.9753 15.5508 100.151 15.5109 100.308 15.597C100.436 15.6808 100.538 15.8013 100.599 15.9434C100.659 16.0625 100.701 16.1898 100.725 16.3213C100.738 16.4159 100.739 16.512 100.727 16.6068C100.665 17.075 100.184 17.3563 99.7585 17.604L99.5788 17.709C99.397 17.8203 99.2152 17.9273 99.019 18.0302C98.8228 18.1331 98.6307 18.2275 98.4448 18.3052C98.2672 18.3807 98.0851 18.4445 97.8995 18.4963C97.7484 18.5404 97.592 18.563 97.4347 18.5634C97.3155 18.5549 97.1972 18.5353 97.0815 18.5047C96.901 18.4564 96.7284 18.3814 96.5693 18.2821C96.3607 18.1495 96.1728 17.986 96.0116 17.7972C95.8035 17.5484 95.6406 17.2641 95.5303 16.9574L95.456 16.7664L95.3093 16.907C95.0799 17.1303 94.8385 17.3405 94.5864 17.5368C94.3407 17.727 94.0795 17.8956 93.8056 18.0407C93.546 18.1788 93.2742 18.292 92.9939 18.3787C92.7328 18.4592 92.4611 18.4981 92.1883 18.4942C91.8504 18.4977 91.5179 18.4085 91.2258 18.2359C90.9545 18.0673 90.7238 17.8392 90.5503 17.5683C90.3652 17.2759 90.2303 16.9536 90.1517 16.6152C90.0822 16.3206 90.0427 16.0195 90.034 15.7167V15.5298L89.7964 15.6096C89.7627 15.623 89.7282 15.6342 89.6932 15.6432C89.4594 15.7144 89.2163 15.7484 88.9723 15.744C88.6084 15.755 88.2492 15.6572 87.9395 15.4627C87.6787 15.2816 87.4658 15.0378 87.3199 14.7531C87.1589 14.4359 87.0447 14.0963 86.9811 13.7454C86.9088 13.3717 86.851 12.9812 86.8076 12.5865L86.7932 12.4647H86.4296L84.6719 17.2051C84.5851 17.4403 84.5004 17.6376 84.4261 17.7909C84.3659 17.9181 84.2925 18.0385 84.2071 18.1499C84.1519 18.2213 84.0812 18.2787 84.0006 18.3178C83.9211 18.3499 83.836 18.3649 83.7506 18.3619C83.5637 18.3693 83.3791 18.3179 83.2219 18.2149C83.0891 18.1151 82.985 17.981 82.9203 17.8266C82.842 17.6387 82.7925 17.4397 82.7737 17.2366C82.7592 17.1631 82.7592 17.096 82.7592 17.0267L82.7427 16.7454L82.5361 16.8881C82.4741 16.9322 82.4122 16.9784 82.3461 17.0225C82.0086 17.2586 81.6544 17.4691 81.2865 17.6523C80.9147 17.8377 80.5294 17.9935 80.1339 18.1184C79.7816 18.2338 79.4135 18.2919 79.0433 18.2905C78.7864 18.2927 78.5313 18.2457 78.2915 18.152C78.1079 18.0772 77.9454 17.9575 77.8185 17.8035C77.6934 17.6447 77.6064 17.4586 77.5644 17.2597C77.5106 17.0173 77.4863 16.7691 77.4921 16.5207C77.4942 16.4347 77.5045 16.3444 77.5045 16.252L77.521 15.9833L77.2959 16.124C77.0299 16.2929 76.754 16.445 76.4697 16.5795C76.1145 16.7444 75.7487 16.8846 75.3749 16.9994C75.2262 17.0456 75.0672 17.0792 74.8999 17.1149C74.624 17.1612 74.3543 17.2401 74.0964 17.35C73.7082 17.5469 73.3047 17.7112 72.8901 17.8412C72.3607 17.9865 71.8049 18.0016 71.2687 17.8853C71.1303 17.858 70.9919 17.835 70.8556 17.8119C70.411 17.7534 69.9753 17.6392 69.5584 17.4718L69.3643 17.392C69.1866 17.308 68.9181 17.2093 68.6744 17.0981L68.6021 17.0645L68.5381 17.1107C68.2828 17.2925 68.0157 17.4567 67.7387 17.6019C67.4615 17.7457 67.1718 17.8631 66.8732 17.9525C66.571 18.0397 66.2579 18.0815 65.9438 18.0764C65.6649 18.0701 65.4315 17.8433 65.2249 17.3983C65.0101 16.9196 64.911 16.2037 64.9254 15.2737C64.9343 14.8734 64.9646 14.474 65.0163 14.0771C65.0721 13.6551 65.1382 13.1995 65.2229 12.6852L65.2477 12.5256H64.8594L62.327 17.4361C62.2483 17.6213 62.1203 17.7806 61.9573 17.8958C61.815 17.9769 61.6534 18.0161 61.4905 18.0092C61.3037 18.0155 61.1194 17.9643 60.9617 17.8622C60.8283 17.7622 60.7241 17.6272 60.6601 17.4718C60.5813 17.2841 60.5319 17.085 60.5135 16.8818C60.5145 16.87 60.5145 16.858 60.5135 16.8461L60.4908 16.5837L60.2656 16.7265C60.026 16.865 59.7658 17.0099 59.4931 17.1464C59.2242 17.2814 58.9484 17.402 58.6669 17.5074C58.4044 17.6079 58.1352 17.6893 57.8614 17.751C57.6238 17.8078 57.3804 17.836 57.1364 17.835C56.9506 17.8371 56.7673 17.7916 56.6034 17.7027C56.4532 17.6116 56.3243 17.4884 56.2255 17.3416C56.1064 17.1644 56.0132 16.9707 55.9487 16.7664C55.8631 16.5159 55.7941 16.2599 55.7421 16.0001L55.6843 15.7062L55.5025 15.9413C55.2863 16.2183 55.0516 16.4799 54.8002 16.7244C54.5701 16.9506 54.3213 17.1564 54.0567 17.3395C53.8229 17.503 53.5704 17.6369 53.3048 17.7384C53.0773 17.827 52.8358 17.8725 52.5922 17.8727C52.4134 17.8704 52.2364 17.8356 52.0696 17.7699C51.9085 17.7011 51.7666 17.5929 51.6565 17.455C51.5213 17.2782 51.4229 17.0754 51.3673 16.8587C51.2888 16.5484 51.2554 16.2279 51.2682 15.9077C51.2933 15.2995 51.3624 14.6939 51.4748 14.096C51.5429 13.6824 51.6235 13.2331 51.7102 12.7544L51.7681 12.4353L49.8347 13.7244L49.8492 13.8146C49.8822 14.0165 49.8974 14.2209 49.8946 14.4256C49.8924 14.8646 49.8105 15.2995 49.653 15.7083C49.5056 16.0909 49.2962 16.4458 49.0333 16.758C48.7641 17.07 48.4525 17.3415 48.1079 17.5641C47.7507 17.7978 47.3681 17.9887 46.9678 18.1331C46.5533 18.2832 46.126 18.3935 45.6913 18.4627C45.2481 18.5346 44.7995 18.5669 44.3508 18.5592C43.7301 18.5502 43.1132 18.4613 42.5145 18.2947C41.9495 18.141 41.414 17.8919 40.9302 17.5578C40.4772 17.2419 40.099 16.8274 39.8231 16.3444C39.5397 15.8275 39.4011 15.2415 39.4224 14.6502C39.4221 14.3468 39.4811 14.0464 39.5959 13.7664C39.6962 13.5334 39.8361 13.3202 40.009 13.1365C40.1585 12.9762 40.3375 12.8471 40.5357 12.7565C40.7032 12.6723 40.888 12.6298 41.0748 12.6327C41.2353 12.63 41.3914 12.6859 41.5148 12.7901C41.6448 12.9108 41.7113 13.0865 41.6945 13.2646C41.6934 13.3622 41.6816 13.4594 41.6594 13.5543C41.6367 13.6572 41.616 13.758 41.5912 13.8671C41.5664 13.9763 41.5437 14.1002 41.521 14.2408C41.499 14.3853 41.4873 14.5313 41.4859 14.6775C41.4698 14.9868 41.5415 15.2943 41.6924 15.5634C41.8429 15.8179 42.0494 16.0334 42.2956 16.1932C42.5685 16.3678 42.8679 16.4955 43.1817 16.5711C43.5267 16.6565 43.88 16.7023 44.2351 16.7076C44.6684 16.7119 45.1008 16.6661 45.524 16.5711C45.9292 16.4823 46.3191 16.3323 46.6807 16.1261C47.0022 15.9423 47.2834 15.6937 47.5069 15.3955C47.7162 15.108 47.8299 14.7601 47.8312 14.4025C47.8402 14.0727 47.7494 13.748 47.5709 13.4724C47.3691 13.1733 47.1208 12.9095 46.8356 12.6915C46.5008 12.4317 46.1457 12.2 45.7739 11.9987C45.3732 11.7782 44.9663 11.5599 44.547 11.3311C44.1277 11.1022 43.7125 10.8629 43.318 10.6194C42.9316 10.3817 42.5691 10.1061 42.2357 9.79642C41.9275 9.50826 41.6697 9.16892 41.4735 8.79292C41.2772 8.40384 41.1819 7.97027 41.1967 7.53329C41.2066 7.08332 41.3197 6.64191 41.5272 6.24427C41.7594 5.79902 42.0869 5.41235 42.4856 5.1127C42.9562 4.76068 43.4841 4.49561 44.0451 4.32964C44.75 4.12281 45.4827 4.0307 46.2159 4.05672C46.7404 4.06578 47.2605 4.15495 47.7589 4.32124C48.2402 4.48045 48.6929 4.71797 49.0994 5.02453C49.4806 5.31476 49.8008 5.6795 50.0413 6.09731C50.2791 6.51523 50.3985 6.99189 50.3862 7.47451C50.3794 7.78524 50.3236 8.09285 50.221 8.38564C50.1008 8.7226 49.9368 9.04173 49.7335 9.33456C49.548 9.62576 49.3028 9.87281 49.0147 10.0588C48.8069 10.1971 48.5667 10.2768 48.3186 10.2898C48.1593 10.2962 48.004 10.2381 47.8869 10.1281C47.7721 10.0066 47.7149 9.84036 47.73 9.67256C47.7372 9.50498 47.7714 9.33974 47.8312 9.1834C47.9154 8.96165 48.0242 8.75035 48.1555 8.55359C48.2764 8.36919 48.3775 8.17211 48.457 7.96576C48.5189 7.7991 48.5531 7.62316 48.5582 7.44512C48.5665 7.21677 48.5028 6.9917 48.3765 6.80271C48.2356 6.6043 48.0519 6.44128 47.8394 6.32615C47.5738 6.18195 47.2883 6.07933 46.9926 6.02174C46.6299 5.9489 46.2613 5.91025 45.8916 5.90627C45.5024 5.89355 45.1134 5.93882 44.737 6.04063C44.4426 6.11934 44.1633 6.24779 43.9108 6.42062C43.714 6.55448 43.5495 6.73172 43.4295 6.93917C43.3298 7.11057 43.2744 7.30485 43.2684 7.5039C43.2557 7.8062 43.3397 8.10455 43.508 8.35415C43.7124 8.63675 43.9607 8.88352 44.2434 9.08473C44.5795 9.33032 44.9338 9.5493 45.303 9.73974L46.5299 10.3884C46.9554 10.611 47.3685 10.8503 47.7692 11.1043C48.159 11.3503 48.5207 11.6397 48.8474 11.9672C49.0086 12.1271 49.1545 12.3021 49.2832 12.4899L49.372 12.6159L52.6418 9.62637H52.6666L52.7161 9.56969C52.8076 9.45938 52.9157 9.36444 53.0363 9.28837C53.1735 9.2043 53.3305 9.15934 53.4907 9.15821C53.7104 9.15793 53.9282 9.19922 54.1331 9.27997C54.2178 9.32616 54.2673 9.37025 54.2673 9.41643C54.2074 9.74394 54.1413 10.1008 54.0711 10.506C54.0009 10.9112 53.9224 11.3185 53.8542 11.73C53.7861 12.1414 53.7158 12.5319 53.6477 12.9308C53.5795 13.3297 53.5196 13.674 53.4659 13.9805C53.4122 14.287 53.3688 14.5347 53.3379 14.7216C53.3009 14.9485 53.2927 15.0002 53.2909 15.0199L53.2904 15.0323C53.2883 15.1505 53.298 15.2687 53.3193 15.385C53.3402 15.4943 53.3757 15.6002 53.4246 15.6999C53.4747 15.7963 53.5452 15.8802 53.6312 15.9455C53.7232 16.0149 53.8347 16.0524 53.9493 16.0526C54.1154 16.0525 54.2793 16.0137 54.4285 15.9392C54.5933 15.8541 54.7433 15.742 54.8725 15.6075C55.0185 15.4515 55.1422 15.2756 55.2402 15.0848C55.3516 14.8623 55.4335 14.6258 55.4839 14.3815L56.4713 9.63897C56.494 9.5361 56.5952 9.44163 56.7728 9.36185C56.9895 9.26614 57.2246 9.22164 57.4606 9.23169C57.695 9.22321 57.9275 9.27828 58.134 9.39124C58.322 9.50881 58.3406 9.62847 58.3406 9.70615C58.3334 9.93124 58.312 10.1556 58.2765 10.378C58.2373 10.6593 58.1856 10.9805 58.1195 11.3248C58.0534 11.6691 57.9874 12.0239 57.913 12.3913C57.8386 12.7586 57.7705 13.0945 57.7064 13.42C57.6424 13.7454 57.5908 14.0204 57.5495 14.2597C57.5163 14.4315 57.4949 14.6055 57.4854 14.7803V15.2695C57.4872 15.4111 57.5052 15.552 57.5391 15.6894C57.5679 15.8111 57.6294 15.9223 57.7168 16.0106C57.8202 16.1 57.9529 16.1465 58.0886 16.1407C58.2724 16.1369 58.4545 16.1029 58.6277 16.04C58.8473 15.9639 59.0612 15.872 59.268 15.765C59.4931 15.6495 59.7245 15.5193 59.9537 15.3766C60.1334 15.2653 60.3152 15.1414 60.5094 14.9966L60.5589 14.9609L60.5796 14.751C60.6354 14.2135 60.7056 13.6677 60.7861 13.1113C60.8667 12.555 60.9617 12.0218 61.0609 11.5053C61.16 10.9889 61.2571 10.5459 61.3459 10.1869C61.4053 9.94004 61.5321 9.71521 61.7115 9.5382C61.9008 9.36375 62.1529 9.27706 62.4076 9.29887C62.6277 9.27539 62.8434 9.37302 62.9735 9.55499C63.0954 9.78602 63.1512 10.0471 63.1346 10.3087C63.13 10.4302 63.119 10.5515 63.1016 10.6719C63.0809 10.8293 63.0561 10.9994 63.0252 11.1904C62.9942 11.3815 62.9611 11.5767 62.9281 11.7782C62.895 11.9798 62.8641 12.1666 62.8331 12.3388C62.8021 12.5109 62.7773 12.66 62.7566 12.788C62.7396 12.8796 62.7279 12.9722 62.7215 13.0652V13.2058H63.1243L63.1636 13.1344C63.2028 13.0652 63.2627 12.9539 63.3453 12.8027L63.6304 12.2779C63.7378 12.068 63.8514 11.858 63.9753 11.6481C64.0992 11.4381 64.2149 11.2177 64.3223 11.0183C64.4297 10.8188 64.5185 10.6404 64.6156 10.4871C64.7127 10.3339 64.7767 10.2205 64.8222 10.147C64.9648 9.88084 65.1799 9.66215 65.4418 9.51721C65.6872 9.40333 65.9551 9.34872 66.2247 9.35765C66.4763 9.35427 66.7113 9.48486 66.8443 9.70195C67.0211 10.0074 67.1018 10.3605 67.0757 10.7139C67.0685 10.8219 67.0533 10.9293 67.0302 11.0351C67.0013 11.1925 66.9641 11.3899 66.9166 11.6124C66.8691 11.8349 66.8195 12.0784 66.7617 12.3493C66.7039 12.6201 66.6522 12.8951 66.6047 13.1764C66.5572 13.4577 66.5159 13.7412 66.4849 14.0162C66.4533 14.2726 66.4347 14.5304 66.4292 14.7887C66.415 15.1302 66.4612 15.4715 66.5655 15.7965C66.6279 16.0663 66.8608 16.26 67.1335 16.2688C67.2636 16.2656 67.3917 16.2349 67.5094 16.1785C67.6518 16.1138 67.7898 16.0394 67.9225 15.956C67.9969 15.9077 68.0774 15.8531 68.1683 15.7881L68.2179 15.7503V15.6873C68.2344 15.5046 68.2509 15.3178 68.2716 15.1225C68.3294 14.5788 68.4079 13.9196 68.505 13.1848C68.6021 12.45 68.7322 11.6145 68.8933 10.6992C69.0007 10.0966 69.135 9.40804 69.294 8.66276C69.4531 7.91748 69.641 7.1512 69.8497 6.39333C70.0583 5.63545 70.2958 4.88597 70.554 4.16588C70.7866 3.50752 71.0712 2.86933 71.405 2.25755C71.6659 1.76824 72.0004 1.3234 72.3965 0.939136C72.6818 0.645594 73.0707 0.480076 73.4767 0.479371ZM94.6752 11.4444L94.6298 11.4927C94.2138 11.6838 93.8331 11.9458 93.5041 12.2674C93.1837 12.5891 92.9059 12.9518 92.6778 13.3465C92.4617 13.7161 92.2884 14.1099 92.1615 14.52C92.049 14.8711 91.9857 15.2364 91.9735 15.6054C91.9713 15.7414 91.9838 15.8773 92.0107 16.0106C92.0397 16.153 92.0982 16.2875 92.1821 16.4053C92.2759 16.5325 92.4004 16.6331 92.5436 16.6971C92.7269 16.7767 92.9247 16.8161 93.124 16.8126H93.1364C93.268 16.8121 93.3976 16.7797 93.5144 16.7181C93.6379 16.6555 93.7531 16.5772 93.8572 16.485C93.966 16.3855 94.0668 16.2774 94.1588 16.1617C94.253 16.0442 94.3399 15.9208 94.4191 15.7923C94.6106 15.4777 94.7764 15.1477 94.9148 14.8055L94.9189 14.7783V14.7363C94.8966 14.6052 94.8842 14.4725 94.8818 14.3395C94.8632 14.1547 94.8632 13.9427 94.8632 13.7097V11.7908C94.8549 11.583 94.8528 11.5137 94.7599 11.4759L94.6752 11.4444ZM72.7806 11.3185C72.5406 11.3155 72.3024 11.3619 72.0804 11.4549C71.8361 11.5562 71.6142 11.7061 71.4277 11.8958C71.2134 12.1189 71.0356 12.3755 70.901 12.6558C70.7359 13.0054 70.6211 13.3773 70.5602 13.7601C70.5003 14.0918 70.4466 14.413 70.4053 14.6964C70.364 14.9798 70.3268 15.2023 70.2999 15.4522C70.2731 15.702 70.2462 15.9455 70.2256 16.1554C70.2111 16.2961 70.3247 16.3444 70.775 16.4704C70.9981 16.5333 71.2584 16.6089 71.3183 16.6089C71.4639 16.6373 71.6119 16.6514 71.7603 16.6509C72.1241 16.659 72.4826 16.5606 72.793 16.3675C73.1774 16.0997 73.4698 15.7165 73.6296 15.2716C73.8415 14.6833 73.9802 14.0705 74.0427 13.4472L74.042 13.4492C74.0632 13.2754 74.0774 13.0944 74.0852 12.9132L74.0922 12.6411C74.0945 12.4802 74.0786 12.3196 74.0447 12.1624C74.0094 12.0079 73.9386 11.864 73.8382 11.7425C73.726 11.6094 73.5844 11.5051 73.4251 11.4381C73.2195 11.3576 73.0009 11.317 72.7806 11.3185ZM98.8868 2.80548H98.8765C98.6018 2.82614 98.3573 2.98974 98.23 3.23796C98.0363 3.54803 97.8836 3.88259 97.7756 4.23306C97.6363 4.66363 97.5204 5.10166 97.4285 5.54518C97.3273 6.02174 97.2447 6.4794 97.1745 6.92657C97.1042 7.37374 97.0505 7.77052 97.0072 8.12742C96.9638 8.48431 96.9349 8.73833 96.9204 8.88739C96.8915 9.1939 96.8647 9.48991 96.8461 9.77543C96.8275 10.0609 96.813 10.3192 96.8027 10.5564C96.7924 10.7936 96.782 10.9994 96.782 11.1736L96.7651 12.3312L97.0361 11.7153V11.7237C97.3976 10.9217 97.728 10.1071 98.0461 9.31146C98.1721 8.97766 98.3023 8.61657 98.4365 8.23238C98.5708 7.8482 98.6906 7.47241 98.8021 7.09242C98.9136 6.71243 99.0128 6.33244 99.0954 5.96505C99.1748 5.61394 99.2348 5.25859 99.2751 4.90067C99.3206 4.46189 99.3474 4.1092 99.3474 3.85098C99.367 3.59364 99.3376 3.33488 99.2607 3.0889C99.2085 2.92285 99.0582 2.80892 98.8868 2.80548ZM73.3631 2.00982C73.1584 2.03139 72.9748 2.14753 72.8653 2.32473C72.7 2.55548 72.5613 2.80486 72.4522 3.06791C72.318 3.36392 72.1816 3.71242 72.0515 4.1176C71.9214 4.52278 71.7933 4.93426 71.6714 5.36253C71.5496 5.7908 71.4277 6.25267 71.3224 6.68934C71.217 7.12601 71.1158 7.55638 71.0249 7.96576C70.9341 8.37514 70.8556 8.73624 70.7895 9.07004C70.7234 9.40384 70.6697 9.66836 70.6304 9.8783L70.4631 10.781L70.8783 9.97907C71.0456 9.66206 71.2356 9.32406 71.4463 8.98186C71.657 8.63966 71.8677 8.27857 72.0887 7.89858C72.3097 7.51859 72.5162 7.13651 72.7228 6.74182C72.9294 6.34714 73.1194 5.93986 73.2908 5.51998C73.4611 5.10492 73.6053 4.67929 73.7225 4.24566C73.8397 3.80792 73.9178 3.36034 73.9559 2.90835C73.9559 2.88736 73.9539 2.84957 73.9435 2.73201C73.9324 2.63368 73.9095 2.5371 73.8754 2.44439C73.8371 2.3414 73.7812 2.24614 73.7101 2.16307C73.622 2.06292 73.4953 2.00692 73.3631 2.00982Z" fill="url(#paint0_linear_1903_3547)"/>
<path d="M117.645 12.3932C117.873 12.3932 117.988 12.7021 117.988 13.32C117.988 13.6558 117.847 14.0655 117.565 14.549C117.282 15.0192 116.913 15.4557 116.456 15.8587C116.013 16.2482 115.516 16.5706 114.965 16.8258C114.415 17.081 113.891 17.2086 113.394 17.2086C112.897 17.2086 112.507 17.1146 112.225 16.9265C111.943 16.7385 111.722 16.4832 111.56 16.1609C111.332 15.7042 111.144 14.8378 110.996 13.5618C110.849 12.2723 110.701 11.3723 110.553 10.8619C110.204 10.7948 109.895 10.6604 109.626 10.459C109.371 10.244 109.243 9.98883 109.243 9.69332C109.243 9.38439 109.378 9.16276 109.646 9.02843C109.928 8.89411 110.244 8.82695 110.593 8.82695C110.956 8.82695 111.278 8.91426 111.56 9.08888C111.937 8.77994 112.239 8.41727 112.467 8.00088C112.709 7.57105 112.83 7.00019 112.83 6.28829C112.83 5.56295 112.588 4.98537 112.104 4.55555C111.621 4.12572 110.909 3.91081 109.969 3.91081C109.042 3.91081 108.33 3.98468 107.833 4.13243C107.336 4.28019 106.906 4.44137 106.544 4.61599C106.194 4.79061 105.879 4.95179 105.597 5.09954C105.328 5.2473 105.073 5.32118 104.831 5.32118C104.589 5.32118 104.468 5.2473 104.468 5.09954C104.468 4.93836 104.596 4.68315 104.851 4.33392C105.106 3.98468 105.482 3.63545 105.979 3.28621C107.229 2.41313 108.639 1.9833 110.21 1.99673C111.782 1.99673 113.078 2.29224 114.099 2.88325C115.295 3.58172 115.892 4.62942 115.892 6.02636C115.906 7.18152 115.603 8.14192 114.986 8.90754C114.368 9.67317 113.602 10.2239 112.689 10.5597C112.89 11.003 113.051 11.4798 113.172 11.9902C113.307 12.5006 113.434 12.9708 113.555 13.4006C113.676 13.8304 113.81 14.1864 113.958 14.4684C114.119 14.7505 114.307 14.8915 114.522 14.8915C114.751 14.8915 115.019 14.7639 115.328 14.5087C115.65 14.2401 115.966 13.9513 116.275 13.6424C116.584 13.3334 116.859 13.0513 117.101 12.7961C117.356 12.5275 117.538 12.3932 117.645 12.3932ZM108.881 5.13984C109.055 5.13984 109.143 5.36819 109.143 5.82488C109.143 6.28157 109.116 6.7114 109.062 7.11436C108.941 7.89342 108.787 8.61876 108.599 9.29036C108.115 11.1171 107.873 12.185 107.873 12.4939V15.4557C107.873 16.181 107.598 16.678 107.047 16.9467C106.792 17.0675 106.544 17.1817 106.302 17.2892C106.073 17.3966 105.811 17.4504 105.516 17.4504C104.952 17.4504 104.67 16.8056 104.67 15.5161C104.67 14.2132 104.972 12.5745 105.576 10.6C106.181 8.62547 106.812 7.12108 107.47 6.0868C107.605 5.88532 107.799 5.67713 108.055 5.46221C108.31 5.2473 108.585 5.13984 108.881 5.13984Z" fill="#1987B6"/>
<path d="M127.496 13.8841C127.845 13.6289 128.16 13.32 128.443 12.9573C128.725 12.5812 128.96 12.3932 129.148 12.3932C129.349 12.3932 129.45 12.6887 129.45 13.2797C129.45 13.8573 129.282 14.408 128.946 14.9318C128.624 15.4423 128.194 15.8721 127.657 16.2213C126.555 16.9467 125.252 17.3093 123.748 17.3093C121.921 17.3093 120.504 16.8526 119.497 15.9392C118.489 15.0259 117.986 13.7565 117.986 12.1312C117.986 10.1299 118.469 8.22922 119.436 6.42932C119.759 5.83831 120.121 5.29431 120.524 4.79732C120.215 4.43466 119.967 4.05856 119.779 3.66903C119.604 3.26606 119.517 2.96384 119.517 2.76236C119.517 2.39969 119.651 2.21836 119.92 2.21836C120.108 2.23179 120.323 2.3594 120.565 2.60117L121.189 3.20562C121.35 3.3668 121.518 3.50113 121.693 3.60858C123.023 2.48029 124.453 1.91614 125.984 1.91614C127.529 1.91614 128.53 2.34596 128.987 3.20562C129.148 3.52799 129.228 3.92424 129.228 4.39436C129.228 5.10626 128.919 5.70399 128.301 6.18755C127.684 6.6711 126.851 6.91288 125.803 6.91288C124.769 6.91288 123.694 6.69797 122.579 6.26814C121.626 7.89342 121.149 9.59258 121.149 11.3656C121.149 13.8237 122.129 15.0527 124.091 15.0527C125.299 15.0527 126.434 14.6632 127.496 13.8841ZM123.547 5.01895C124.232 5.2473 124.977 5.36147 125.783 5.36147C126.589 5.36147 126.992 5.13984 126.992 4.69658C126.992 4.17273 126.663 3.91081 126.005 3.91081C125.105 3.91081 124.285 4.28019 123.547 5.01895Z" fill="#1987B6"/>
<path d="M40.9396 24.456V26.2605H43.2166V27.192H40.9396V29.0325H43.8286V30H39.7246V23.493H43.8286V24.456H40.9396Z" fill="#1987B6"/>
<path d="M47.4657 26.562C47.3397 26.409 47.2017 26.301 47.0517 26.238C46.9047 26.175 46.7457 26.1435 46.5747 26.1435C46.4067 26.1435 46.2552 26.175 46.1202 26.238C45.9852 26.301 45.8697 26.397 45.7737 26.526C45.6777 26.652 45.6042 26.814 45.5532 27.012C45.5022 27.207 45.4767 27.438 45.4767 27.705C45.4767 27.975 45.4977 28.2045 45.5397 28.3935C45.5847 28.5795 45.6477 28.7325 45.7287 28.8525C45.8097 28.9695 45.9087 29.055 46.0257 29.109C46.1427 29.16 46.2732 29.1855 46.4172 29.1855C46.6482 29.1855 46.8447 29.1375 47.0067 29.0415C47.1687 28.9455 47.3217 28.809 47.4657 28.632V26.562ZM48.5772 23.313V30H47.8977C47.7507 30 47.6577 29.9325 47.6187 29.7975L47.5242 29.352C47.3382 29.565 47.1237 29.7375 46.8807 29.8695C46.6407 30.0015 46.3602 30.0675 46.0392 30.0675C45.7872 30.0675 45.5562 30.015 45.3462 29.91C45.1362 29.805 44.9547 29.6535 44.8017 29.4555C44.6517 29.2545 44.5347 29.007 44.4507 28.713C44.3697 28.419 44.3292 28.083 44.3292 27.705C44.3292 27.363 44.3757 27.045 44.4687 26.751C44.5617 26.457 44.6952 26.202 44.8692 25.986C45.0432 25.77 45.2517 25.602 45.4947 25.482C45.7377 25.359 46.0107 25.2975 46.3137 25.2975C46.5717 25.2975 46.7922 25.338 46.9752 25.419C47.1582 25.5 47.3217 25.6095 47.4657 25.7475V23.313H48.5772Z" fill="#1987B6"/>
<path d="M53.6521 25.383V30H52.9726C52.8256 30 52.7326 29.9325 52.6936 29.7975L52.6171 29.4285C52.4281 29.6205 52.2196 29.7765 51.9916 29.8965C51.7636 30.0135 51.4951 30.072 51.1861 30.072C50.9341 30.072 50.7106 30.03 50.5156 29.946C50.3236 29.859 50.1616 29.7375 50.0296 29.5815C49.8976 29.4255 49.7971 29.241 49.7281 29.028C49.6621 28.812 49.6291 28.575 49.6291 28.317V25.383H50.7406V28.317C50.7406 28.599 50.8051 28.818 50.9341 28.974C51.0661 29.127 51.2626 29.2035 51.5236 29.2035C51.7156 29.2035 51.8956 29.1615 52.0636 29.0775C52.2316 28.9905 52.3906 28.872 52.5406 28.722V25.383H53.6521Z" fill="#1987B6"/>
<path d="M58.0617 26.3595C58.0287 26.4015 57.9957 26.4345 57.9627 26.4585C57.9327 26.4825 57.8877 26.4945 57.8277 26.4945C57.7707 26.4945 57.7152 26.478 57.6612 26.445C57.6072 26.409 57.5427 26.37 57.4677 26.328C57.3927 26.283 57.3027 26.244 57.1977 26.211C57.0957 26.175 56.9682 26.157 56.8152 26.157C56.6202 26.157 56.4492 26.193 56.3022 26.265C56.1552 26.334 56.0322 26.4345 55.9332 26.5665C55.8372 26.6985 55.7652 26.859 55.7172 27.048C55.6692 27.234 55.6452 27.4455 55.6452 27.6825C55.6452 27.9285 55.6707 28.1475 55.7217 28.3395C55.7757 28.5315 55.8522 28.6935 55.9512 28.8255C56.0502 28.9545 56.1702 29.0535 56.3112 29.1225C56.4522 29.1885 56.6112 29.2215 56.7882 29.2215C56.9652 29.2215 57.1077 29.2005 57.2157 29.1585C57.3267 29.1135 57.4197 29.0655 57.4947 29.0145C57.5697 28.9605 57.6342 28.9125 57.6882 28.8705C57.7452 28.8255 57.8082 28.803 57.8772 28.803C57.9672 28.803 58.0347 28.8375 58.0797 28.9065L58.3992 29.3115C58.2762 29.4555 58.1427 29.577 57.9987 29.676C57.8547 29.772 57.7047 29.85 57.5487 29.91C57.3957 29.967 57.2367 30.0075 57.0717 30.0315C56.9097 30.0555 56.7477 30.0675 56.5857 30.0675C56.3007 30.0675 56.0322 30.015 55.7802 29.91C55.5282 29.802 55.3077 29.646 55.1187 29.442C54.9297 29.238 54.7797 28.989 54.6687 28.695C54.5607 28.398 54.5067 28.0605 54.5067 27.6825C54.5067 27.3435 54.5547 27.03 54.6507 26.742C54.7497 26.451 54.8937 26.2005 55.0827 25.9905C55.2717 25.7775 55.5057 25.611 55.7847 25.491C56.0637 25.371 56.3847 25.311 56.7477 25.311C57.0927 25.311 57.3942 25.3665 57.6522 25.4775C57.9132 25.5885 58.1472 25.7475 58.3542 25.9545L58.0617 26.3595Z" fill="#1987B6"/>
<path d="M61.535 28.029C61.214 28.044 60.944 28.0725 60.725 28.1145C60.506 28.1535 60.3305 28.2045 60.1985 28.2675C60.0665 28.3305 59.972 28.404 59.915 28.488C59.858 28.572 59.8295 28.6635 59.8295 28.7625C59.8295 28.9575 59.8865 29.097 60.0005 29.181C60.1175 29.265 60.269 29.307 60.455 29.307C60.683 29.307 60.8795 29.2665 61.0445 29.1855C61.2125 29.1015 61.376 28.9755 61.535 28.8075V28.029ZM58.988 26.0265C59.519 25.5405 60.158 25.2975 60.905 25.2975C61.175 25.2975 61.4165 25.3425 61.6295 25.4325C61.8425 25.5195 62.0225 25.6425 62.1695 25.8015C62.3165 25.9575 62.4275 26.145 62.5025 26.364C62.5805 26.583 62.6195 26.823 62.6195 27.084V30H62.1155C62.0105 30 61.9295 29.985 61.8725 29.955C61.8155 29.922 61.7705 29.8575 61.7375 29.7615L61.6385 29.4285C61.5215 29.5335 61.4075 29.6265 61.2965 29.7075C61.1855 29.7855 61.07 29.8515 60.95 29.9055C60.83 29.9595 60.701 30 60.563 30.027C60.428 30.057 60.278 30.072 60.113 30.072C59.918 30.072 59.738 30.0465 59.573 29.9955C59.408 29.9415 59.2655 29.862 59.1455 29.757C59.0255 29.652 58.9325 29.5215 58.8665 29.3655C58.8005 29.2095 58.7675 29.028 58.7675 28.821C58.7675 28.704 58.787 28.5885 58.826 28.4745C58.865 28.3575 58.928 28.2465 59.015 28.1415C59.105 28.0365 59.2205 27.9375 59.3615 27.8445C59.5025 27.7515 59.675 27.6705 59.879 27.6015C60.086 27.5325 60.326 27.477 60.599 27.435C60.872 27.39 61.184 27.363 61.535 27.354V27.084C61.535 26.775 61.469 26.547 61.337 26.4C61.205 26.25 61.0145 26.175 60.7655 26.175C60.5855 26.175 60.4355 26.196 60.3155 26.238C60.1985 26.28 60.095 26.328 60.005 26.382C59.915 26.433 59.8325 26.4795 59.7575 26.5215C59.6855 26.5635 59.6045 26.5845 59.5145 26.5845C59.4365 26.5845 59.3705 26.565 59.3165 26.526C59.2625 26.484 59.219 26.436 59.186 26.382L58.988 26.0265Z" fill="#1987B6"/>
<path d="M68.2623 30H67.1508V26.2155H65.0088V28.7175C65.0088 28.8615 65.0433 28.974 65.1123 29.055C65.1843 29.136 65.2818 29.1765 65.4048 29.1765C65.4738 29.1765 65.5308 29.169 65.5758 29.154C65.6238 29.136 65.6643 29.118 65.6973 29.1C65.7333 29.082 65.7648 29.0655 65.7918 29.0505C65.8188 29.0325 65.8458 29.0235 65.8728 29.0235C65.9058 29.0235 65.9328 29.0325 65.9538 29.0505C65.9748 29.0655 65.9973 29.0895 66.0213 29.1225L66.3543 29.6625C66.1923 29.7975 66.0063 29.8995 65.7963 29.9685C65.5863 30.0375 65.3688 30.072 65.1438 30.072C64.7418 30.072 64.4328 29.9595 64.2168 29.7345C64.0038 29.5065 63.8973 29.193 63.8973 28.794V26.2155H63.4248C63.3648 26.2155 63.3138 26.196 63.2718 26.157C63.2298 26.118 63.2088 26.0595 63.2088 25.9815V25.5405L63.9513 25.4145L64.1853 24.159C64.2003 24.099 64.2288 24.0525 64.2708 24.0195C64.3128 23.9865 64.3668 23.97 64.4328 23.97H65.0088V25.4235H68.2623V30ZM68.4558 24.0195C68.4558 24.1155 68.4363 24.207 68.3973 24.294C68.3583 24.378 68.3058 24.4515 68.2398 24.5145C68.1768 24.5775 68.1003 24.6285 68.0103 24.6675C67.9233 24.7035 67.8303 24.7215 67.7313 24.7215C67.6353 24.7215 67.5453 24.7035 67.4613 24.6675C67.3773 24.6285 67.3038 24.5775 67.2408 24.5145C67.1778 24.4515 67.1268 24.378 67.0878 24.294C67.0518 24.207 67.0338 24.1155 67.0338 24.0195C67.0338 23.9205 67.0518 23.829 67.0878 23.745C67.1268 23.658 67.1778 23.583 67.2408 23.52C67.3038 23.454 67.3773 23.403 67.4613 23.367C67.5453 23.328 67.6353 23.3085 67.7313 23.3085C67.8303 23.3085 67.9233 23.328 68.0103 23.367C68.1003 23.403 68.1768 23.454 68.2398 23.52C68.3058 23.583 68.3583 23.658 68.3973 23.745C68.4363 23.829 68.4558 23.9205 68.4558 24.0195Z" fill="#1987B6"/>
<path d="M71.4398 25.311C71.7818 25.311 72.0923 25.3665 72.3713 25.4775C72.6533 25.5885 72.8933 25.746 73.0913 25.95C73.2923 26.154 73.4468 26.403 73.5548 26.697C73.6628 26.991 73.7168 27.3195 73.7168 27.6825C73.7168 28.0485 73.6628 28.3785 73.5548 28.6725C73.4468 28.9665 73.2923 29.217 73.0913 29.424C72.8933 29.631 72.6533 29.79 72.3713 29.901C72.0923 30.012 71.7818 30.0675 71.4398 30.0675C71.0948 30.0675 70.7813 30.012 70.4993 29.901C70.2173 29.79 69.9758 29.631 69.7748 29.424C69.5768 29.217 69.4223 28.9665 69.3113 28.6725C69.2033 28.3785 69.1493 28.0485 69.1493 27.6825C69.1493 27.3195 69.2033 26.991 69.3113 26.697C69.4223 26.403 69.5768 26.154 69.7748 25.95C69.9758 25.746 70.2173 25.5885 70.4993 25.4775C70.7813 25.3665 71.0948 25.311 71.4398 25.311ZM71.4398 29.2125C71.8238 29.2125 72.1073 29.0835 72.2903 28.8255C72.4763 28.5675 72.5693 28.1895 72.5693 27.6915C72.5693 27.1935 72.4763 26.814 72.2903 26.553C72.1073 26.292 71.8238 26.1615 71.4398 26.1615C71.0498 26.1615 70.7603 26.2935 70.5713 26.5575C70.3853 26.8185 70.2923 27.1965 70.2923 27.6915C70.2923 28.1865 70.3853 28.5645 70.5713 28.8255C70.7603 29.0835 71.0498 29.2125 71.4398 29.2125Z" fill="#1987B6"/>
<path d="M75.6042 25.95C75.6972 25.857 75.7947 25.7715 75.8967 25.6935C76.0017 25.6125 76.1112 25.545 76.2252 25.491C76.3422 25.434 76.4667 25.3905 76.5987 25.3605C76.7307 25.3275 76.8747 25.311 77.0307 25.311C77.2827 25.311 77.5062 25.3545 77.7012 25.4415C77.8962 25.5255 78.0582 25.6455 78.1872 25.8015C78.3192 25.9545 78.4182 26.139 78.4842 26.355C78.5532 26.568 78.5877 26.8035 78.5877 27.0615V30H77.4762V27.0615C77.4762 26.7795 77.4117 26.562 77.2827 26.409C77.1537 26.253 76.9572 26.175 76.6932 26.175C76.5012 26.175 76.3212 26.2185 76.1532 26.3055C75.9852 26.3925 75.8262 26.511 75.6762 26.661V30H74.5647V25.383H75.2442C75.3882 25.383 75.4827 25.4505 75.5277 25.5855L75.6042 25.95Z" fill="#1987B6"/>
<path d="M83.9753 26.589C84.2033 26.589 84.4013 26.5605 84.5693 26.5035C84.7403 26.4465 84.8798 26.3685 84.9878 26.2695C85.0988 26.1675 85.1813 26.0475 85.2353 25.9095C85.2893 25.7715 85.3163 25.62 85.3163 25.455C85.3163 25.125 85.2068 24.8715 84.9878 24.6945C84.7718 24.5175 84.4403 24.429 83.9933 24.429H83.2193V26.589H83.9753ZM87.0893 30H85.9958C85.7888 30 85.6388 29.919 85.5458 29.757L84.1778 27.6735C84.1268 27.5955 84.0698 27.54 84.0068 27.507C83.9468 27.474 83.8568 27.4575 83.7368 27.4575H83.2193V30H82.0088V23.493H83.9933C84.4343 23.493 84.8123 23.5395 85.1273 23.6325C85.4453 23.7225 85.7048 23.85 85.9058 24.015C86.1098 24.18 86.2598 24.378 86.3558 24.609C86.4518 24.837 86.4998 25.089 86.4998 25.365C86.4998 25.584 86.4668 25.791 86.4008 25.986C86.3378 26.181 86.2448 26.358 86.1218 26.517C86.0018 26.676 85.8518 26.8155 85.6718 26.9355C85.4948 27.0555 85.2923 27.15 85.0643 27.219C85.1423 27.264 85.2143 27.318 85.2803 27.381C85.3463 27.441 85.4063 27.513 85.4603 27.597L87.0893 30Z" fill="#1987B6"/>
<path d="M90.2922 27.1605C90.2922 27.0165 90.2712 26.8815 90.2292 26.7555C90.1902 26.6265 90.1302 26.514 90.0492 26.418C89.9682 26.322 89.8647 26.247 89.7387 26.193C89.6157 26.136 89.4717 26.1075 89.3067 26.1075C88.9857 26.1075 88.7322 26.199 88.5462 26.382C88.3632 26.565 88.2462 26.8245 88.1952 27.1605H90.2922ZM88.1727 27.831C88.1907 28.068 88.2327 28.2735 88.2987 28.4475C88.3647 28.6185 88.4517 28.761 88.5597 28.875C88.6677 28.986 88.7952 29.07 88.9422 29.127C89.0922 29.181 89.2572 29.208 89.4372 29.208C89.6172 29.208 89.7717 29.187 89.9007 29.145C90.0327 29.103 90.1467 29.0565 90.2427 29.0055C90.3417 28.9545 90.4272 28.908 90.4992 28.866C90.5742 28.824 90.6462 28.803 90.7152 28.803C90.8082 28.803 90.8772 28.8375 90.9222 28.9065L91.2417 29.3115C91.1187 29.4555 90.9807 29.577 90.8277 29.676C90.6747 29.772 90.5142 29.85 90.3462 29.91C90.1812 29.967 90.0117 30.0075 89.8377 30.0315C89.6667 30.0555 89.5002 30.0675 89.3382 30.0675C89.0172 30.0675 88.7187 30.015 88.4427 29.91C88.1667 29.802 87.9267 29.6445 87.7227 29.4375C87.5187 29.2275 87.3582 28.9695 87.2412 28.6635C87.1242 28.3545 87.0657 27.9975 87.0657 27.5925C87.0657 27.2775 87.1167 26.982 87.2187 26.706C87.3207 26.427 87.4662 26.1855 87.6552 25.9815C87.8472 25.7745 88.0797 25.611 88.3527 25.491C88.6287 25.371 88.9392 25.311 89.2842 25.311C89.5752 25.311 89.8437 25.3575 90.0897 25.4505C90.3357 25.5435 90.5472 25.68 90.7242 25.86C90.9012 26.037 91.0392 26.256 91.1382 26.517C91.2402 26.775 91.2912 27.0705 91.2912 27.4035C91.2912 27.5715 91.2732 27.6855 91.2372 27.7455C91.2012 27.8025 91.1322 27.831 91.0302 27.831H88.1727Z" fill="#1987B6"/>
<path d="M93.8128 27.579C93.9508 27.579 94.0708 27.561 94.1728 27.525C94.2748 27.486 94.3588 27.4335 94.4248 27.3675C94.4938 27.3015 94.5448 27.222 94.5778 27.129C94.6138 27.036 94.6318 26.934 94.6318 26.823C94.6318 26.595 94.5628 26.415 94.4248 26.283C94.2898 26.148 94.0858 26.0805 93.8128 26.0805C93.5398 26.0805 93.3343 26.148 93.1963 26.283C93.0613 26.415 92.9938 26.595 92.9938 26.823C92.9938 26.931 93.0103 27.0315 93.0433 27.1245C93.0793 27.2175 93.1303 27.2985 93.1963 27.3675C93.2653 27.4335 93.3508 27.486 93.4528 27.525C93.5578 27.561 93.6778 27.579 93.8128 27.579ZM95.0683 30.207C95.0683 30.117 95.0413 30.0435 94.9873 29.9865C94.9333 29.9295 94.8598 29.886 94.7668 29.856C94.6738 29.823 94.5643 29.799 94.4383 29.784C94.3153 29.769 94.1833 29.7585 94.0423 29.7525C93.9043 29.7435 93.7603 29.736 93.6103 29.73C93.4633 29.724 93.3193 29.712 93.1783 29.694C93.0553 29.763 92.9548 29.844 92.8768 29.937C92.8018 30.03 92.7643 30.138 92.7643 30.261C92.7643 30.342 92.7838 30.417 92.8228 30.486C92.8648 30.558 92.9293 30.6195 93.0163 30.6705C93.1063 30.7215 93.2218 30.7605 93.3628 30.7875C93.5038 30.8175 93.6763 30.8325 93.8803 30.8325C94.0873 30.8325 94.2658 30.816 94.4158 30.783C94.5658 30.753 94.6888 30.7095 94.7848 30.6525C94.8838 30.5985 94.9558 30.5325 95.0008 30.4545C95.0458 30.3795 95.0683 30.297 95.0683 30.207ZM96.1753 25.5405V25.9545C96.1753 26.0865 96.0958 26.1675 95.9368 26.1975L95.5228 26.274C95.5858 26.433 95.6173 26.607 95.6173 26.796C95.6173 27.024 95.5708 27.231 95.4778 27.417C95.3878 27.6 95.2618 27.756 95.0998 27.885C94.9378 28.014 94.7458 28.1145 94.5238 28.1865C94.3048 28.2555 94.0678 28.29 93.8128 28.29C93.7228 28.29 93.6358 28.2855 93.5518 28.2765C93.4678 28.2675 93.3853 28.2555 93.3043 28.2405C93.1603 28.3275 93.0883 28.425 93.0883 28.533C93.0883 28.626 93.1303 28.695 93.2143 28.74C93.3013 28.782 93.4153 28.812 93.5563 28.83C93.6973 28.848 93.8578 28.86 94.0378 28.866C94.2178 28.869 94.4023 28.878 94.5913 28.893C94.7803 28.908 94.9648 28.935 95.1448 28.974C95.3248 29.01 95.4853 29.0685 95.6263 29.1495C95.7673 29.2305 95.8798 29.3415 95.9638 29.4825C96.0508 29.6205 96.0943 29.799 96.0943 30.018C96.0943 30.222 96.0433 30.42 95.9413 30.612C95.8423 30.804 95.6968 30.975 95.5048 31.125C95.3158 31.275 95.0818 31.395 94.8028 31.485C94.5268 31.578 94.2118 31.6245 93.8578 31.6245C93.5098 31.6245 93.2068 31.59 92.9488 31.521C92.6908 31.455 92.4763 31.365 92.3053 31.251C92.1343 31.14 92.0068 31.011 91.9228 30.864C91.8388 30.717 91.7968 30.564 91.7968 30.405C91.7968 30.189 91.8613 30.009 91.9903 29.865C92.1223 29.718 92.3023 29.601 92.5303 29.514C92.4073 29.451 92.3098 29.367 92.2378 29.262C92.1658 29.157 92.1298 29.019 92.1298 28.848C92.1298 28.779 92.1418 28.7085 92.1658 28.6365C92.1928 28.5615 92.2303 28.488 92.2783 28.416C92.3293 28.344 92.3923 28.2765 92.4673 28.2135C92.5423 28.1475 92.6308 28.089 92.7328 28.038C92.4988 27.912 92.3143 27.744 92.1793 27.534C92.0473 27.324 91.9813 27.078 91.9813 26.796C91.9813 26.568 92.0263 26.3625 92.1163 26.1795C92.2093 25.9935 92.3368 25.836 92.4988 25.707C92.6638 25.575 92.8573 25.4745 93.0793 25.4055C93.3043 25.3365 93.5488 25.302 93.8128 25.302C94.0108 25.302 94.1968 25.323 94.3708 25.365C94.5448 25.404 94.7038 25.4625 94.8478 25.5405H96.1753Z" fill="#1987B6"/>
<path d="M98.0322 25.383V30H96.9162V25.383H98.0322ZM98.1852 24.0375C98.1852 24.1335 98.1657 24.2235 98.1267 24.3075C98.0877 24.3915 98.0352 24.465 97.9692 24.528C97.9062 24.591 97.8312 24.642 97.7442 24.681C97.6572 24.717 97.5642 24.735 97.4652 24.735C97.3692 24.735 97.2777 24.717 97.1907 24.681C97.1067 24.642 97.0332 24.591 96.9702 24.528C96.9072 24.465 96.8562 24.3915 96.8172 24.3075C96.7812 24.2235 96.7632 24.1335 96.7632 24.0375C96.7632 23.9385 96.7812 23.8455 96.8172 23.7585C96.8562 23.6715 96.9072 23.5965 96.9702 23.5335C97.0332 23.4705 97.1067 23.421 97.1907 23.385C97.2777 23.346 97.3692 23.3265 97.4652 23.3265C97.5642 23.3265 97.6572 23.346 97.7442 23.385C97.8312 23.421 97.9062 23.4705 97.9692 23.5335C98.0352 23.5965 98.0877 23.6715 98.1267 23.7585C98.1657 23.8455 98.1852 23.9385 98.1852 24.0375Z" fill="#1987B6"/>
<path d="M101.982 26.283C101.952 26.331 101.921 26.3655 101.888 26.3865C101.855 26.4045 101.813 26.4135 101.762 26.4135C101.708 26.4135 101.649 26.3985 101.586 26.3685C101.526 26.3385 101.456 26.3055 101.375 26.2695C101.294 26.2305 101.201 26.196 101.096 26.166C100.994 26.136 100.872 26.121 100.731 26.121C100.512 26.121 100.34 26.1675 100.214 26.2605C100.091 26.3535 100.029 26.475 100.029 26.625C100.029 26.724 100.061 26.808 100.124 26.877C100.19 26.943 100.275 27.0015 100.38 27.0525C100.488 27.1035 100.61 27.15 100.745 27.192C100.88 27.231 101.016 27.2745 101.154 27.3225C101.295 27.3705 101.433 27.426 101.568 27.489C101.703 27.549 101.823 27.627 101.928 27.723C102.036 27.816 102.122 27.9285 102.185 28.0605C102.251 28.1925 102.284 28.3515 102.284 28.5375C102.284 28.7595 102.243 28.965 102.162 29.154C102.084 29.34 101.967 29.502 101.811 29.64C101.655 29.775 101.462 29.8815 101.231 29.9595C101.003 30.0345 100.739 30.072 100.439 30.072C100.28 30.072 100.124 30.057 99.9708 30.027C99.8208 30 99.6753 29.961 99.5343 29.91C99.3963 29.859 99.2673 29.799 99.1473 29.73C99.0303 29.661 98.9268 29.586 98.8368 29.505L99.0933 29.082C99.1263 29.031 99.1653 28.992 99.2103 28.965C99.2553 28.938 99.3123 28.9245 99.3813 28.9245C99.4503 28.9245 99.5148 28.944 99.5748 28.983C99.6378 29.022 99.7098 29.064 99.7908 29.109C99.8718 29.154 99.9663 29.196 100.074 29.235C100.185 29.274 100.325 29.2935 100.493 29.2935C100.625 29.2935 100.737 29.2785 100.83 29.2485C100.926 29.2155 101.004 29.1735 101.064 29.1225C101.127 29.0715 101.172 29.013 101.199 28.947C101.229 28.878 101.244 28.8075 101.244 28.7355C101.244 28.6275 101.211 28.539 101.145 28.47C101.082 28.401 100.997 28.341 100.889 28.29C100.784 28.239 100.662 28.194 100.524 28.155C100.389 28.113 100.25 28.068 100.106 28.02C99.9648 27.972 99.8253 27.9165 99.6873 27.8535C99.5523 27.7875 99.4308 27.705 99.3228 27.606C99.2178 27.507 99.1323 27.3855 99.0663 27.2415C99.0033 27.0975 98.9718 26.9235 98.9718 26.7195C98.9718 26.5305 99.0093 26.3505 99.0843 26.1795C99.1593 26.0085 99.2688 25.86 99.4128 25.734C99.5598 25.605 99.7413 25.503 99.9573 25.428C100.176 25.35 100.428 25.311 100.713 25.311C101.031 25.311 101.321 25.3635 101.582 25.4685C101.843 25.5735 102.06 25.7115 102.234 25.8825L101.982 26.283Z" fill="#1987B6"/>
<path d="M104.659 30.072C104.257 30.072 103.948 29.9595 103.732 29.7345C103.519 29.5065 103.413 29.193 103.413 28.794V26.2155H102.94C102.88 26.2155 102.829 26.196 102.787 26.157C102.745 26.118 102.724 26.0595 102.724 25.9815V25.5405L103.467 25.419L103.701 24.159C103.716 24.099 103.744 24.0525 103.786 24.0195C103.828 23.9865 103.882 23.97 103.948 23.97H104.524V25.4235H105.757V26.2155H104.524V28.7175C104.524 28.8615 104.559 28.974 104.628 29.055C104.7 29.136 104.797 29.1765 104.92 29.1765C104.989 29.1765 105.046 29.169 105.091 29.154C105.139 29.136 105.18 29.118 105.213 29.1C105.249 29.082 105.28 29.0655 105.307 29.0505C105.334 29.0325 105.361 29.0235 105.388 29.0235C105.421 29.0235 105.448 29.0325 105.469 29.0505C105.49 29.0655 105.513 29.0895 105.537 29.1225L105.87 29.6625C105.708 29.7975 105.522 29.8995 105.312 29.9685C105.102 30.0375 104.884 30.072 104.659 30.072Z" fill="#1987B6"/>
<path d="M107.518 26.184C107.662 25.908 107.833 25.692 108.031 25.536C108.229 25.377 108.463 25.2975 108.733 25.2975C108.946 25.2975 109.117 25.344 109.246 25.437L109.174 26.2695C109.159 26.3235 109.136 26.3625 109.106 26.3865C109.079 26.4075 109.042 26.418 108.994 26.418C108.949 26.418 108.881 26.4105 108.791 26.3955C108.704 26.3805 108.619 26.373 108.535 26.373C108.412 26.373 108.302 26.391 108.206 26.427C108.11 26.463 108.023 26.5155 107.945 26.5845C107.87 26.6505 107.803 26.7315 107.743 26.8275C107.686 26.9235 107.632 27.033 107.581 27.156V30H106.469V25.383H107.122C107.236 25.383 107.315 25.404 107.36 25.446C107.405 25.485 107.435 25.557 107.45 25.662L107.518 26.184Z" fill="#1987B6"/>
<path d="M114.02 25.383L111.505 31.269C111.472 31.347 111.428 31.4055 111.374 31.4445C111.323 31.4865 111.244 31.5075 111.136 31.5075H110.308L111.172 29.6535L109.304 25.383H110.281C110.368 25.383 110.435 25.404 110.483 25.446C110.534 25.488 110.572 25.536 110.596 25.59L111.577 27.984C111.61 28.065 111.637 28.146 111.658 28.227C111.682 28.308 111.704 28.3905 111.725 28.4745C111.752 28.3905 111.779 28.308 111.806 28.227C111.833 28.143 111.863 28.0605 111.896 27.9795L112.823 25.59C112.847 25.53 112.886 25.4805 112.94 25.4415C112.997 25.4025 113.06 25.383 113.129 25.383H114.02Z" fill="#1987B6"/>
<rect x="11" width="30" height="9" rx="4.5" fill="#FFD965"/>
<path d="M19.0575 4.4695C19.0575 4.8405 18.9956 5.18116 18.872 5.4915C18.7483 5.80183 18.5745 6.069 18.3505 6.293C18.1265 6.517 17.857 6.69083 17.542 6.8145C17.227 6.93816 16.877 7 16.492 7H14.5635V1.939H16.492C16.877 1.939 17.227 2.002 17.542 2.128C17.857 2.25166 18.1265 2.4255 18.3505 2.6495C18.5745 2.87116 18.7483 3.13716 18.872 3.4475C18.9956 3.75783 19.0575 4.0985 19.0575 4.4695ZM18.0915 4.4695C18.0915 4.19183 18.0541 3.94333 17.9795 3.724C17.9071 3.50233 17.801 3.31566 17.661 3.164C17.5233 3.01 17.3553 2.89216 17.157 2.8105C16.961 2.72883 16.7393 2.688 16.492 2.688H15.5085V6.251H16.492C16.7393 6.251 16.961 6.21016 17.157 6.1285C17.3553 6.04683 17.5233 5.93016 17.661 5.7785C17.801 5.6245 17.9071 5.43783 17.9795 5.2185C18.0541 4.99683 18.0915 4.74716 18.0915 4.4695Z" fill="black"/>
<path d="M21.8337 2.688V4.0915H23.6047V4.816H21.8337V6.2475H24.0807V7H20.8887V1.939H24.0807V2.688H21.8337Z" fill="black"/>
<path d="M31.403 1.939V7H30.5735V3.731C30.5735 3.60033 30.5805 3.45916 30.5945 3.3075L29.065 6.181C28.9927 6.31866 28.8819 6.3875 28.7325 6.3875H28.5995C28.4502 6.3875 28.3394 6.31866 28.267 6.181L26.72 3.297C26.727 3.374 26.7329 3.44983 26.7375 3.5245C26.7422 3.59916 26.7445 3.668 26.7445 3.731V7H25.915V1.939H26.6255C26.6675 1.939 26.7037 1.94016 26.734 1.9425C26.7644 1.94483 26.7912 1.95066 26.8145 1.96C26.8402 1.96933 26.8624 1.9845 26.881 2.0055C26.902 2.0265 26.9219 2.0545 26.9405 2.0895L28.456 4.9C28.4957 4.97466 28.5319 5.05166 28.5645 5.131C28.5995 5.21033 28.6334 5.292 28.666 5.376C28.6987 5.28966 28.7325 5.20683 28.7675 5.1275C28.8025 5.04583 28.8399 4.96766 28.8795 4.893L30.374 2.0895C30.3927 2.0545 30.4125 2.0265 30.4335 2.0055C30.4545 1.9845 30.4767 1.96933 30.5 1.96C30.5257 1.95066 30.5537 1.94483 30.584 1.9425C30.6144 1.94016 30.6505 1.939 30.6925 1.939H31.403Z" fill="black"/>
<path d="M38.3587 4.4695C38.3587 4.8405 38.2969 5.18466 38.1732 5.502C38.0519 5.817 37.8792 6.09 37.6552 6.321C37.4312 6.552 37.1617 6.73283 36.8467 6.8635C36.5317 6.99183 36.1817 7.056 35.7967 7.056C35.4141 7.056 35.0652 6.99183 34.7502 6.8635C34.4352 6.73283 34.1646 6.552 33.9382 6.321C33.7142 6.09 33.5404 5.817 33.4167 5.502C33.2931 5.18466 33.2312 4.8405 33.2312 4.4695C33.2312 4.0985 33.2931 3.7555 33.4167 3.4405C33.5404 3.12316 33.7142 2.849 33.9382 2.618C34.1646 2.387 34.4352 2.20733 34.7502 2.079C35.0652 1.94833 35.4141 1.883 35.7967 1.883C36.0534 1.883 36.2949 1.91333 36.5212 1.974C36.7476 2.03233 36.9552 2.11633 37.1442 2.226C37.3332 2.33333 37.5024 2.46516 37.6517 2.6215C37.8034 2.7755 37.9317 2.94816 38.0367 3.1395C38.1417 3.33083 38.2211 3.5385 38.2747 3.7625C38.3307 3.9865 38.3587 4.22216 38.3587 4.4695ZM37.3962 4.4695C37.3962 4.19183 37.3589 3.94333 37.2842 3.724C37.2096 3.50233 37.1034 3.3145 36.9657 3.1605C36.8281 3.0065 36.6601 2.88866 36.4617 2.807C36.2657 2.72533 36.0441 2.6845 35.7967 2.6845C35.5494 2.6845 35.3266 2.72533 35.1282 2.807C34.9322 2.88866 34.7642 3.0065 34.6242 3.1605C34.4866 3.3145 34.3804 3.50233 34.3057 3.724C34.2311 3.94333 34.1937 4.19183 34.1937 4.4695C34.1937 4.74716 34.2311 4.99683 34.3057 5.2185C34.3804 5.43783 34.4866 5.6245 34.6242 5.7785C34.7642 5.93016 34.9322 6.04683 35.1282 6.1285C35.3266 6.21016 35.5494 6.251 35.7967 6.251C36.0441 6.251 36.2657 6.21016 36.4617 6.1285C36.6601 6.04683 36.8281 5.93016 36.9657 5.7785C37.1034 5.6245 37.2096 5.43783 37.2842 5.2185C37.3589 4.99683 37.3962 4.74716 37.3962 4.4695Z" fill="black"/>
<defs>
<linearGradient id="paint0_linear_1903_3547" x1="-18.7342" y1="13.7753" x2="50.0146" y2="46.0621" gradientUnits="userSpaceOnUse">
<stop stop-color="#00B993"/>
<stop offset="1" stop-color="#0080BC"/>
</linearGradient>
</defs>
</svg>
